<?xml version="1.0" encoding="UTF-8" standalone="no"?>
<!-- Created with Inkscape (http://www.inkscape.org/) -->

<svg
   xmlns:dc="http://purl.org/dc/elements/1.1/"
   xmlns:cc="http://creativecommons.org/ns#"
   xmlns:rdf="http://www.w3.org/1999/02/22-rdf-syntax-ns#"
   xmlns:svg="http://www.w3.org/2000/svg"
   xmlns="http://www.w3.org/2000/svg"
   xmlns:sodipodi="http://sodipodi.sourceforge.net/DTD/sodipodi-0.dtd"
   xmlns:inkscape="http://www.inkscape.org/namespaces/inkscape"
   width="192.94676"
   height="193.63974"
   id="svg2"
   version="1.1"
   inkscape:version="0.48.4 r9939"
   sodipodi:docname="New document 1">
  <defs
     id="defs4" />
  <sodipodi:namedview
     id="base"
     pagecolor="#ffffff"
     bordercolor="#666666"
     borderopacity="1.0"
     inkscape:pageopacity="0.0"
     inkscape:pageshadow="2"
     inkscape:zoom="2.8"
     inkscape:cx="53.724439"
     inkscape:cy="69.598919"
     inkscape:document-units="px"
     inkscape:current-layer="layer1"
     showgrid="false"
     fit-margin-top="0"
     fit-margin-left="0"
     fit-margin-right="0"
     fit-margin-bottom="0"
     inkscape:window-width="1920"
     inkscape:window-height="1005"
     inkscape:window-x="0"
     inkscape:window-y="25"
     inkscape:window-maximized="1" />
  <metadata
     id="metadata7">
    <rdf:RDF>
      <cc:Work
         rdf:about="">
        <dc:format>image/svg+xml</dc:format>
        <dc:type
           rdf:resource="http://purl.org/dc/dcmitype/StillImage" />
        <dc:title></dc:title>
      </cc:Work>
    </rdf:RDF>
  </metadata>
  <g
     inkscape:label="Layer 1"
     inkscape:groupmode="layer"
     id="layer1"
     transform="translate(-75.771988,-18.28125)">
    <path
       style="fill:none;stroke:#000000;stroke-width:1;stroke-linecap:butt;stroke-linejoin:miter;stroke-miterlimit:4;stroke-opacity:1;stroke-dasharray:3, 1;stroke-dashoffset:0"
       d="M 219.85701,67.970006 251.21443,39.611499"
       id="path3149-5-3-3-7-6"
       inkscape:connector-curvature="0"
       sodipodi:nodetypes="cc" />
    <path
       style="fill:none;stroke:#000000;stroke-width:1;stroke-linecap:butt;stroke-linejoin:miter;stroke-miterlimit:4;stroke-opacity:1;stroke-dasharray:1, 1;stroke-dashoffset:0"
       d="m 92.428958,181.61069 6.818529,14.01587"
       id="path3149"
       inkscape:connector-curvature="0"
       sodipodi:nodetypes="cc" />
    <path
       style="fill:none;stroke:#000000;stroke-width:1;stroke-linecap:butt;stroke-linejoin:miter;stroke-miterlimit:4;stroke-opacity:1;stroke-dasharray:1, 1;stroke-dashoffset:0"
       d="m 99.878835,195.31088 19.571705,1.6415"
       id="path3149-5"
       inkscape:connector-curvature="0"
       sodipodi:nodetypes="cc" />
    <path
       style="fill:none;stroke:#000000;stroke-width:1;stroke-linecap:butt;stroke-linejoin:miter;stroke-miterlimit:4;stroke-opacity:1;stroke-dasharray:1, 1;stroke-dashoffset:0"
       d="m 219.857,67.970006 12.786,11.284357"
       id="path3149-5-3"
       inkscape:connector-curvature="0"
       sodipodi:nodetypes="cc" />
    <path
       style="fill:none;stroke:#000000;stroke-width:1;stroke-linecap:butt;stroke-linejoin:miter;stroke-miterlimit:4;stroke-opacity:1;stroke-dasharray:3, 1;stroke-dashoffset:0"
       d="M 219.67843,67.612864 241.03585,102.1115"
       id="path3149-5-3-3-6"
       inkscape:connector-curvature="0"
       sodipodi:nodetypes="cc" />
    <path
       style="fill:none;stroke:#000000;stroke-width:1;stroke-linecap:butt;stroke-linejoin:miter;stroke-miterlimit:4;stroke-opacity:1;stroke-dasharray:3, 1;stroke-dashoffset:0"
       d="m 219.32129,67.791434 -4.35686,26.641493"
       id="path3149-5-3-3"
       inkscape:connector-curvature="0"
       sodipodi:nodetypes="cc" />
    <path
       style="fill:none;stroke:#000000;stroke-width:1;stroke-linecap:butt;stroke-linejoin:miter;stroke-miterlimit:4;stroke-opacity:1;stroke-dasharray:none;stroke-dashoffset:0"
       d="M 92.662169,180.71139 219.83783,67.941548"
       id="path3149-4"
       inkscape:connector-curvature="0"
       sodipodi:nodetypes="cc" />
    <path
       style="fill:none;stroke:#000000;stroke-width:1;stroke-linecap:butt;stroke-linejoin:miter;stroke-miterlimit:4;stroke-opacity:1;stroke-dasharray:3, 1;stroke-dashoffset:0"
       d="M 219.67843,67.25572 194.96442,65.682927"
       id="path3149-5-3-3-8"
       inkscape:connector-curvature="0"
       sodipodi:nodetypes="cc" />
    <path
       style="fill:none;stroke:#000000;stroke-width:1;stroke-linecap:butt;stroke-linejoin:miter;stroke-miterlimit:4;stroke-opacity:1;stroke-dasharray:3, 1;stroke-dashoffset:0"
       d="M 219.67843,66.541435 203.53585,43.182928"
       id="path3149-5-3-3-7"
       inkscape:connector-curvature="0"
       sodipodi:nodetypes="cc" />
    <path
       sodipodi:type="arc"
       style="fill:#000000;fill-opacity:1;stroke:#666666;stroke-width:2;stroke-miterlimit:4;stroke-opacity:1;stroke-dasharray:1.5, 1.5;stroke-dashoffset:0"
       id="path2985"
       sodipodi:cx="112.12693"
       sodipodi:cy="121.00153"
       sodipodi:rx="16.162441"
       sodipodi:ry="16.162441"
       d="m 128.28937,121.00153 c 0,8.92627 -7.23617,16.16244 -16.16244,16.16244 -8.92627,0 -16.162441,-7.23617 -16.162441,-16.16244 0,-8.92627 7.236171,-16.16244 16.162441,-16.16244 8.92627,0 16.16244,7.23617 16.16244,16.16244 z"
       transform="matrix(0.14566692,0,0,0.14566692,76.080541,162.98984)" />
    <path
       sodipodi:type="arc"
       style="fill:#0000ff;fill-opacity:1;stroke:#666666;stroke-width:2;stroke-miterlimit:4;stroke-opacity:1;stroke-dasharray:1.5, 1.5;stroke-dashoffset:0"
       id="path2985-9"
       sodipodi:cx="112.12693"
       sodipodi:cy="121.00153"
       sodipodi:rx="16.162441"
       sodipodi:ry="16.162441"
       d="m 128.28937,121.00153 c 0,8.92627 -7.23617,16.16244 -16.16244,16.16244 -8.92627,0 -16.162441,-7.23617 -16.162441,-16.16244 0,-8.92627 7.236171,-16.16244 16.162441,-16.16244 8.92627,0 16.16244,7.23617 16.16244,16.16244 z"
       transform="matrix(0.14566692,0,0,0.14566692,82.661765,178.12691)" />
    <path
       sodipodi:type="arc"
       style="fill:#0000ff;fill-opacity:1;stroke:#666666;stroke-width:2;stroke-miterlimit:4;stroke-opacity:1;stroke-dasharray:1.5, 1.5;stroke-dashoffset:0"
       id="path2985-7"
       sodipodi:cx="112.12693"
       sodipodi:cy="121.00153"
       sodipodi:rx="16.162441"
       sodipodi:ry="16.162441"
       d="m 128.28937,121.00153 c 0,8.92627 -7.23617,16.16244 -16.16244,16.16244 -8.92627,0 -16.162441,-7.23617 -16.162441,-16.16244 0,-8.92627 7.236171,-16.16244 16.162441,-16.16244 8.92627,0 16.16244,7.23617 16.16244,16.16244 z"
       transform="matrix(0.14566692,0,0,0.14566692,102.86481,179.64214)" />
    <path
       sodipodi:type="arc"
       style="fill:#00ff00;fill-opacity:1;stroke:#666666;stroke-width:2;stroke-miterlimit:4;stroke-opacity:1;stroke-dasharray:1.5, 1.5;stroke-dashoffset:0"
       id="path2985-95"
       sodipodi:cx="112.12693"
       sodipodi:cy="121.00153"
       sodipodi:rx="16.162441"
       sodipodi:ry="16.162441"
       d="m 128.28937,121.00153 c 0,8.92627 -7.23617,16.16244 -16.16244,16.16244 -8.92627,0 -16.162441,-7.23617 -16.162441,-16.16244 0,-8.92627 7.236171,-16.16244 16.162441,-16.16244 8.92627,0 16.16244,7.23617 16.16244,16.16244 z"
       transform="matrix(0.14566692,0,0,0.14566692,203.88007,49.83753)" />
    <path
       sodipodi:type="arc"
       style="fill:#00ff00;fill-opacity:1;stroke:#666666;stroke-width:2;stroke-miterlimit:4;stroke-opacity:1;stroke-dasharray:1.5, 1.5;stroke-dashoffset:0"
       id="path2985-2"
       sodipodi:cx="112.12693"
       sodipodi:cy="121.00153"
       sodipodi:rx="16.162441"
       sodipodi:ry="16.162441"
       d="m 128.28937,121.00153 c 0,8.92627 -7.23617,16.16244 -16.16244,16.16244 -8.92627,0 -16.162441,-7.23617 -16.162441,-16.16244 0,-8.92627 7.236171,-16.16244 16.162441,-16.16244 8.92627,0 16.16244,7.23617 16.16244,16.16244 z"
       transform="matrix(0.14566692,0,0,0.14566692,215.49682,60.949208)" />
    <path
       sodipodi:type="arc"
       style="fill:#000000;fill-opacity:1;stroke:#666666;stroke-width:2;stroke-miterlimit:4;stroke-opacity:1;stroke-dasharray:1.5, 1.5;stroke-dashoffset:0"
       id="path2985-3"
       sodipodi:cx="112.12693"
       sodipodi:cy="121.00153"
       sodipodi:rx="16.162441"
       sodipodi:ry="16.162441"
       d="m 128.28937,121.00153 c 0,8.92627 -7.23617,16.16244 -16.16244,16.16244 -8.92627,0 -16.162441,-7.23617 -16.162441,-16.16244 0,-8.92627 7.236171,-16.16244 16.162441,-16.16244 8.92627,0 16.16244,7.23617 16.16244,16.16244 z"
       transform="matrix(0.14566692,0,0,0.14566692,187.21255,25.088792)" />
    <path
       sodipodi:type="arc"
       style="fill:#000000;fill-opacity:1;stroke:#666666;stroke-width:2;stroke-miterlimit:4;stroke-opacity:1;stroke-dasharray:1.5, 1.5;stroke-dashoffset:0"
       id="path2985-4"
       sodipodi:cx="112.12693"
       sodipodi:cy="121.00153"
       sodipodi:rx="16.162441"
       sodipodi:ry="16.162441"
       d="m 128.28937,121.00153 c 0,8.92627 -7.23617,16.16244 -16.16244,16.16244 -8.92627,0 -16.162441,-7.23617 -16.162441,-16.16244 0,-8.92627 7.236171,-16.16244 16.162441,-16.16244 8.92627,0 16.16244,7.23617 16.16244,16.16244 z"
       transform="matrix(0.14566692,0,0,0.14566692,177.11103,47.817225)" />
    <path
       sodipodi:type="arc"
       style="fill:#000000;fill-opacity:1;stroke:#666666;stroke-width:2;stroke-miterlimit:4;stroke-opacity:1;stroke-dasharray:1.5, 1.5;stroke-dashoffset:0"
       id="path2985-8"
       sodipodi:cx="112.12693"
       sodipodi:cy="121.00153"
       sodipodi:rx="16.162441"
       sodipodi:ry="16.162441"
       d="m 128.28937,121.00153 c 0,8.92627 -7.23617,16.16244 -16.16244,16.16244 -8.92627,0 -16.162441,-7.23617 -16.162441,-16.16244 0,-8.92627 7.236171,-16.16244 16.162441,-16.16244 8.92627,0 16.16244,7.23617 16.16244,16.16244 z"
       transform="matrix(0.14566692,0,0,0.14566692,198.32423,76.101496)" />
    <path
       sodipodi:type="arc"
       style="fill:#000000;fill-opacity:1;stroke:#666666;stroke-width:2;stroke-miterlimit:4;stroke-opacity:1;stroke-dasharray:1.5, 1.5;stroke-dashoffset:0"
       id="path2985-5"
       sodipodi:cx="112.12693"
       sodipodi:cy="121.00153"
       sodipodi:rx="16.162441"
       sodipodi:ry="16.162441"
       d="m 128.28937,121.00153 c 0,8.92627 -7.23617,16.16244 -16.16244,16.16244 -8.92627,0 -16.162441,-7.23617 -16.162441,-16.16244 0,-8.92627 7.236171,-16.16244 16.162441,-16.16244 8.92627,0 16.16244,7.23617 16.16244,16.16244 z"
       transform="matrix(0.14566692,0,0,0.14566692,225.09327,82.667486)" />
    <path
       sodipodi:type="arc"
       style="fill:#000000;fill-opacity:1;stroke:#666666;stroke-width:2;stroke-miterlimit:4;stroke-opacity:1;stroke-dasharray:1.5, 1.5;stroke-dashoffset:0"
       id="path2985-6"
       sodipodi:cx="112.12693"
       sodipodi:cy="121.00153"
       sodipodi:rx="16.162441"
       sodipodi:ry="16.162441"
       d="m 128.28937,121.00153 c 0,8.92627 -7.23617,16.16244 -16.16244,16.16244 -8.92627,0 -16.162441,-7.23617 -16.162441,-16.16244 0,-8.92627 7.236171,-16.16244 16.162441,-16.16244 8.92627,0 16.16244,7.23617 16.16244,16.16244 z"
       transform="matrix(0.14566692,0,0,0.14566692,234.68972,23.068487)" />
    <text
       xml:space="preserve"
       x="75.256363"
       y="175.04471"
       id="text3075"><tspan
         sodipodi:role="line"
         id="tspan3077"
         x="75.256363"
         y="175.04471">z<tspan
   style="font-size:65.00091553%;baseline-shift:sub"
   id="tspan3079">0</tspan></tspan></text>
    <text
       xml:space="preserve"
       x="84.27108"
       y="211.92099"
       id="text3075-0"><tspan
         sodipodi:role="line"
         id="tspan3077-6"
         x="84.27108"
         y="211.92099">zL<tspan
   style="font-size:65.00091553%;baseline-shift:sub"
   id="tspan3079-2" /></tspan></text>
    <text
       xml:space="preserve"
       x="124.67718"
       y="211.41589"
       id="text3075-3"><tspan
         sodipodi:role="line"
         id="tspan3077-7"
         x="124.67718"
         y="211.41589">zL'<tspan
   style="font-size:65.00091553%;baseline-shift:sub"
   id="tspan3079-6" /></tspan></text>
    <text
       xml:space="preserve"
       x="236.86539"
       y="90.142487"
       id="text3075-9"><tspan
         sodipodi:role="line"
         id="tspan3077-2"
         x="236.86539"
         y="90.142487">zC'<tspan
   style="font-size:65.00091553%;baseline-shift:sub"
   id="tspan3079-7" /></tspan></text>
    <text
       xml:space="preserve"
       x="215.71344"
       y="58.316525"
       id="text3075-32"><tspan
         sodipodi:role="line"
         id="tspan3077-26"
         x="215.71344"
         y="58.316525">zC<tspan
   style="font-size:65.00091553%;baseline-shift:sub"
   id="tspan3079-3" /></tspan></text>
    <path
       sodipodi:type="arc"
       style="fill:none;stroke:#666666;stroke-width:1;stroke-miterlimit:4;stroke-opacity:1;stroke-dasharray:3, 1;stroke-dashoffset:0"
       id="path4048"
       sodipodi:cx="220.35715"
       sodipodi:cy="66.647896"
       sodipodi:rx="47.857143"
       sodipodi:ry="47.857143"
       d="m 268.21429,66.647896 c 0,26.43077 -21.42637,47.857144 -47.85714,47.857144 -26.43077,0 -47.85715,-21.426374 -47.85715,-47.857144 0,-26.430771 21.42638,-47.857144 47.85715,-47.857144 26.43077,0 47.85714,21.426373 47.85714,47.857144 z" />
  </g>
</svg>
